<svg width="25" height="24" viewBox="0 0 25 24" fill="none" xmlns="http://www.w3.org/2000/svg">
<path d="M7.88584 12.5876H16.1211C16.1983 12.5876 16.2748 12.5724 16.3461 12.5429C16.4175 12.5133 16.4823 12.47 16.5369 12.4154C16.5916 12.3608 16.6349 12.2959 16.6644 12.2246C16.694 12.1532 16.7092 12.0767 16.7092 11.9995C16.7092 11.9223 16.694 11.8458 16.6644 11.7744C16.6349 11.7031 16.5916 11.6383 16.5369 11.5837C16.4823 11.529 16.4175 11.4857 16.3461 11.4562C16.2748 11.4266 16.1983 11.4114 16.1211 11.4114H7.88584C7.80861 11.4114 7.73214 11.4266 7.66079 11.4562C7.58944 11.4857 7.5246 11.529 7.46999 11.5837C7.41538 11.6383 7.37205 11.7031 7.3425 11.7744C7.31294 11.8458 7.29773 11.9223 7.29773 11.9995C7.29773 12.0767 7.31294 12.1532 7.3425 12.2246C7.37205 12.2959 7.41538 12.3608 7.46999 12.4154C7.5246 12.47 7.58944 12.5133 7.66079 12.5429C7.73214 12.5724 7.80861 12.5876 7.88584 12.5876Z" fill="#fff"/>
<path d="M19.0742 4.93018C17.4386 3.29395 15.2862 2.27549 12.9838 2.04833C10.6814 1.82118 8.37146 2.39938 6.44759 3.68442C4.52372 4.96946 3.10494 6.88183 2.43301 9.09568C1.76107 11.3095 1.87754 13.6879 2.76259 15.8255C3.64763 17.9631 5.2465 19.7276 7.28673 20.8185C9.32696 21.9094 11.6823 22.2591 13.9515 21.8081C16.2207 21.357 18.2633 20.1331 19.7312 18.3449C21.1992 16.5567 22.0016 14.3148 22.0019 12.0012C22.0057 10.6876 21.7489 9.38619 21.2463 8.17244C20.7438 6.9587 20.0055 5.85668 19.0742 4.93018ZM12.0032 20.8262C7.13765 20.8262 3.17943 16.868 3.17943 12.0025C3.17943 7.13695 7.13765 3.17871 12.0032 3.17871C16.8687 3.17871 20.8269 7.13695 20.8269 12.0025C20.8269 16.868 16.8687 20.825 12.0032 20.825V20.8262Z" fill="#fff"/>
</svg>
