<svg width="24" height="24" viewBox="0 0 24 24" fill="none" xmlns="http://www.w3.org/2000/svg">
<path d="M7.86799 12.5904H11.4089V16.1314C11.413 16.2853 11.477 16.4315 11.5873 16.5389C11.6976 16.6463 11.8455 16.7064 11.9994 16.7064C12.1534 16.7064 12.3012 16.6463 12.4115 16.5389C12.5218 16.4315 12.5858 16.2853 12.5899 16.1314V12.5904H16.1309C16.2848 12.5863 16.431 12.5223 16.5384 12.412C16.6458 12.3017 16.7059 12.1539 16.7059 11.9999C16.7059 11.846 16.6458 11.6981 16.5384 11.5878C16.431 11.4775 16.2848 11.4135 16.1309 11.4094H12.5899V7.86848C12.5858 7.71459 12.5218 7.56837 12.4115 7.46096C12.3012 7.35356 12.1534 7.29346 11.9994 7.29346C11.8455 7.29346 11.6976 7.35356 11.5873 7.46096C11.477 7.56837 11.413 7.71459 11.4089 7.86848V11.4094H7.86799C7.7141 11.4135 7.56788 11.4775 7.46047 11.5878C7.35307 11.6981 7.29297 11.846 7.29297 11.9999C7.29297 12.1539 7.35307 12.3017 7.46047 12.412C7.56788 12.5223 7.7141 12.5863 7.86799 12.5904Z" fill="#fff"/>
<path d="M19.0985 4.90251C17.2127 3.03655 14.6649 1.99303 12.012 2.00004C9.35905 2.00704 6.81679 3.06402 4.94089 4.93992C3.06499 6.81582 2.00802 9.35807 2.00101 12.011C1.994 14.6639 3.03753 17.2117 4.90349 19.0975C6.78927 20.9635 9.33708 22.007 11.99 22C14.6429 21.993 17.1852 20.936 19.0611 19.0601C20.937 17.1842 21.9939 14.6419 22.0009 11.989C22.0079 9.3361 20.9644 6.7883 19.0985 4.90251ZM12.0033 20.8563C7.11969 20.8563 3.14677 16.8834 3.14677 11.9998C3.14677 7.11622 7.11761 3.14371 12.0033 3.14371C16.8889 3.14371 20.8594 7.11664 20.8594 11.9998C20.8594 16.8829 16.8843 20.8563 12.0033 20.8563Z" fill="#fff"/>
</svg>
