<svg width="24" height="24" viewBox="0 0 24 24" fill="none" xmlns="http://www.w3.org/2000/svg">
<path d="M16.35 3H8.65C7.73906 3 7 3.75586 7 4.6875V19.3125C7 20.2441 7.73906 21 8.65 21H16.35C17.2609 21 18 20.2441 18 19.3125V4.6875C18 3.75586 17.2609 3 16.35 3ZM12.5 19.875C11.8916 19.875 11.4 19.3723 11.4 18.75C11.4 18.1277 11.8916 17.625 12.5 17.625C13.1084 17.625 13.6 18.1277 13.6 18.75C13.6 19.3723 13.1084 19.875 12.5 19.875ZM16.35 16.0781C16.35 16.3102 16.1644 16.5 15.9375 16.5H9.0625C8.83563 16.5 8.65 16.3102 8.65 16.0781V5.10938C8.65 4.87734 8.83563 4.6875 9.0625 4.6875H15.9375C16.1644 4.6875 16.35 4.87734 16.35 5.10938V16.0781Z" fill="#4F4F54"/>
</svg>
