<svg width="16" height="12" viewBox="0 0 16 12" fill="none" xmlns="http://www.w3.org/2000/svg">
<path d="M2.75 5.25C3.57734 5.25 4.25 4.57734 4.25 3.75C4.25 2.92266 3.57734 2.25 2.75 2.25C1.92266 2.25 1.25 2.92266 1.25 3.75C1.25 4.57734 1.92266 5.25 2.75 5.25ZM13.25 5.25C14.0773 5.25 14.75 4.57734 14.75 3.75C14.75 2.92266 14.0773 2.25 13.25 2.25C12.4227 2.25 11.75 2.92266 11.75 3.75C11.75 4.57734 12.4227 5.25 13.25 5.25ZM14 6H12.5C12.0875 6 11.7148 6.16641 11.443 6.43594C12.3875 6.95391 13.0578 7.88906 13.2031 9H14.75C15.1648 9 15.5 8.66484 15.5 8.25V7.5C15.5 6.67266 14.8273 6 14 6ZM8 6C9.45078 6 10.625 4.82578 10.625 3.375C10.625 1.92422 9.45078 0.75 8 0.75C6.54922 0.75 5.375 1.92422 5.375 3.375C5.375 4.82578 6.54922 6 8 6ZM9.8 6.75H9.60547C9.11797 6.98438 8.57656 7.125 8 7.125C7.42344 7.125 6.88437 6.98438 6.39453 6.75H6.2C4.70937 6.75 3.5 7.95938 3.5 9.45V10.125C3.5 10.7461 4.00391 11.25 4.625 11.25H11.375C11.9961 11.25 12.5 10.7461 12.5 10.125V9.45C12.5 7.95938 11.2906 6.75 9.8 6.75ZM4.55703 6.43594C4.28516 6.16641 3.9125 6 3.5 6H2C1.17266 6 0.5 6.67266 0.5 7.5V8.25C0.5 8.66484 0.835156 9 1.25 9H2.79453C2.94219 7.88906 3.6125 6.95391 4.55703 6.43594Z" fill="#F0F0F0"/>
</svg>
