<svg width="24" height="24" viewBox="0 0 24 24" fill="none" xmlns="http://www.w3.org/2000/svg">
<path d="M12 3C7.02608 3 3 7.02529 3 12C3 16.9739 7.02529 21 12 21C13.7475 21 15.46 20.4869 16.914 19.5403C17.3497 19.2567 17.4447 18.6589 17.1155 18.2566L16.7462 17.8054C16.4678 17.4654 15.9776 17.382 15.6076 17.6193C14.5374 18.3057 13.2816 18.6774 12 18.6774C8.31806 18.6774 5.32258 15.6819 5.32258 12C5.32258 8.31806 8.31806 5.32258 12 5.32258C15.6341 5.32258 18.6774 7.41359 18.6774 11.129C18.6774 12.5366 17.9119 14.0229 16.5664 14.1663C15.9368 14.1498 15.9527 13.6997 16.0774 13.0767L16.9278 8.68158C17.0318 8.14415 16.62 7.64516 16.0727 7.64516H14.4403C14.3198 7.64516 14.2035 7.68953 14.1136 7.7698C14.0237 7.85007 13.9665 7.96063 13.9529 8.08039L13.9525 8.08373C13.4191 7.4341 12.4846 7.29351 11.7761 7.29351C9.06959 7.29351 6.77419 9.552 6.77419 12.79C6.77419 15.1599 8.10913 16.6321 10.2581 16.6321C11.2373 16.6321 12.34 16.0646 12.9795 15.241C13.3251 16.4786 14.4534 16.4786 15.5456 16.4786C19.4979 16.4786 21 13.8798 21 11.129C21 6.18096 17.0089 3 12 3ZM11.2132 14.0479C10.4058 14.0479 9.90423 13.4809 9.90423 12.5683C9.90423 10.9355 11.0212 9.92891 12.0319 9.92891C12.8409 9.92891 13.3239 10.482 13.3239 11.4085C13.3239 13.0437 12.0946 14.0479 11.2132 14.0479Z" fill="#4F4F54"/>
</svg>
