<svg width="14" height="14" viewBox="0 0 14 14" fill="none" xmlns="http://www.w3.org/2000/svg">
<path d="M7 0.25C3.27117 0.25 0.25 3.27117 0.25 7C0.25 10.7288 3.27117 13.75 7 13.75C10.7288 13.75 13.75 10.7288 13.75 7C13.75 3.27117 10.7288 0.25 7 0.25ZM7 12.4435C3.99244 12.4435 1.55645 10.0076 1.55645 7C1.55645 3.99244 3.99244 1.55645 7 1.55645C10.0076 1.55645 12.4435 3.99244 12.4435 7C12.4435 10.0076 10.0076 12.4435 7 12.4435ZM8.68206 9.60202L6.37127 7.92268C6.2869 7.86008 6.2379 7.7621 6.2379 7.65867V3.18952C6.2379 3.00988 6.38488 2.8629 6.56452 2.8629H7.43548C7.61512 2.8629 7.7621 3.00988 7.7621 3.18952V7.04627L9.58024 8.36905C9.72722 8.4752 9.75716 8.67933 9.65101 8.82631L9.13931 9.53125C9.03317 9.6755 8.82903 9.70817 8.68206 9.60202Z" fill="#F0F0F0"/>
</svg>
